<?xml version="1.0" encoding="UTF-8"?>
<svg id="Layer_2" data-name="Layer 2" xmlns="http://www.w3.org/2000/svg" viewBox="0 0 29.24 28.64">
  <defs>
    <style>
      .cls-1 {
        fill: #fff;
      }
    </style>
  </defs>
  <g id="design">
    <g>
      <polygon class="cls-1" points="12.45 10.64 13.99 15.65 10.98 15.65 12.45 10.64"/>
      <path class="cls-1" d="M23.99,0H5.25C2.35,0,0,2.36,0,5.27V23.38c0,2.91,2.35,5.26,5.25,5.26H23.99c2.9,0,5.25-2.36,5.25-5.26V5.27c0-2.91-2.35-5.27-5.25-5.27ZM15.79,21.27l-1.03-3.12-4.53,.03-1.01,3.09h-2.82l4.03-11.21c.2-.55,.3-1.12,.3-1.7h3.45l4.6,12.92h-2.98Zm6.85,0h-2.67V11.47h2.67v9.8Zm-1.34-10.82c-.85,0-1.54-.69-1.54-1.54s.69-1.54,1.54-1.54,1.54,.69,1.54,1.54-.69,1.54-1.54,1.54Z"/>
    </g>
  </g>
</svg>