<?xml version="1.0" encoding="UTF-8"?>
<svg id="Layer_2" data-name="Layer 2" xmlns="http://www.w3.org/2000/svg" viewBox="0 0 29.89 29.28">
  <defs>
    <style>
      .cls-1 {
        fill: #fff;
      }
    </style>
  </defs>
  <g id="design">
    <path class="cls-1" d="M24.52,0H5.37C2.4,0,0,2.42,0,5.39V23.9c0,2.97,2.4,5.38,5.37,5.38H24.52c2.97,0,5.37-2.41,5.37-5.38V5.39c0-2.97-2.4-5.39-5.37-5.39ZM14.88,15.78c-.81,.81-1.92,1.31-3.16,1.31h-2.14v4.07h-2.73V8.14h4.87c2.47,0,4.47,2,4.47,4.47,0,1.23-.5,2.36-1.31,3.17Zm8.81,3.08c-.72,.65-1.71,.93-2.66,1-.11,0-.23,.01-.34,.01-1.05,.03-2.15-.2-3.1-.64-.01,0-.03,0-.03-.01,0-.77,0-1.53,0-2.3,0,.04,.76,.23,.85,.25,.87,.29,1.9,.5,2.81,.38,.19-.03,.39-.07,.54-.19,.56-.47,0-1.05-.47-1.28-.49-.24-1.03-.39-1.53-.61-.49-.21-.95-.48-1.33-.84-1.26-1.18-1.22-3.17,.08-4.32,.73-.66,1.72-.86,2.67-.9,.99-.05,1.99,.13,2.9,.51,.03,.02,.07,.03,.09,.06,.01,.03,.01,.06,.01,.1,0,.78,0,1.56,0,2.34-.15-.12-.36-.18-.53-.25-.19-.08-.39-.16-.58-.22-.71-.23-1.62-.44-2.34-.19-.27,.09-.46,.28-.46,.57,0,.46,.45,.68,.81,.84,.45,.21,.93,.33,1.38,.54,1.17,.55,2.26,1.48,2.26,2.88,0,.86-.4,1.69-1.04,2.27ZM11.38,10.5h-1.79v4.22h1.79c.58,0,1.11-.23,1.49-.62,.38-.38,.62-.91,.62-1.49,0-1.16-.94-2.11-2.1-2.11Z"/>
  </g>
</svg>