<?xml version="1.0" encoding="UTF-8"?>
<svg id="Layer_2" data-name="Layer 2" xmlns="http://www.w3.org/2000/svg" viewBox="0 0 29.89 29.28">
  <defs>
    <style>
      .cls-1 {
        fill: #fff;
      }
    </style>
  </defs>
  <g id="design">
    <path class="cls-1" d="M14.95,11.17v3.47c0-1.92,1.55-3.47,3.46-3.47h-3.46Zm0,0v3.47c0-1.92,1.55-3.47,3.46-3.47h-3.46ZM24.52,0H5.37C2.4,0,0,2.42,0,5.39V23.9c0,2.97,2.4,5.38,5.37,5.38H24.52c2.97,0,5.37-2.41,5.37-5.38V5.39c0-2.97-2.4-5.39-5.37-5.39Zm-2.64,14.64c0,1.92-1.55,3.48-3.47,3.48s-3.46-1.56-3.46-3.48v6.95c0,1.92-1.55,3.47-3.47,3.47s-3.46-1.56-3.46-3.47,1.55-3.47,3.46-3.47c-1.91,0-3.46-1.56-3.46-3.48s1.55-3.47,3.46-3.47c-1.91,0-3.46-1.56-3.46-3.48s1.55-3.47,3.46-3.47h6.94c1.92,0,3.47,1.56,3.47,3.47s-1.55,3.48-3.47,3.48c1.92,0,3.47,1.56,3.47,3.47Zm-6.94,0c0-1.92,1.55-3.47,3.46-3.47h-3.46v3.47Zm0-3.47v3.47c0-1.92,1.55-3.47,3.46-3.47h-3.46Z"/>
  </g>
</svg>