<?xml version="1.0" encoding="UTF-8"?>
<svg id="Layer_2" data-name="Layer 2" xmlns="http://www.w3.org/2000/svg" viewBox="0 0 29.89 29.28">
  <defs>
    <style>
      .cls-1 {
        fill: #fff;
      }
    </style>
  </defs>
  <g id="design">
    <g>
      <path class="cls-1" d="M12.99,12.61c0,.58-.24,1.11-.62,1.49-.38,.38-.91,.62-1.49,.62h-1.79v-4.22h1.79c1.16,0,2.1,.95,2.1,2.11Z"/>
      <path class="cls-1" d="M24.52,0H5.37C2.4,0,0,2.42,0,5.39V23.9c0,2.97,2.4,5.38,5.37,5.38H24.52c2.97,0,5.37-2.41,5.37-5.38V5.39c0-2.97-2.4-5.39-5.37-5.39ZM14.38,15.78c-.8,.81-1.92,1.31-3.15,1.31h-2.14v4.07h-2.73V8.14h4.87c2.47,0,4.46,2,4.46,4.47,0,1.23-.5,2.36-1.31,3.17Zm9.15-2.11s-1.81-.1-2.86,.62c-.39,.27-.62,.72-.62,1.19v5.67h-2.61V11.19h2.61v1.26s1.21-1.53,3.47-1.53v2.75Z"/>
    </g>
  </g>
</svg>