<?xml version="1.0" encoding="UTF-8"?>
<svg id="Layer_2" data-name="Layer 2" xmlns="http://www.w3.org/2000/svg" viewBox="0 0 29.9 29.28">
  <defs>
    <style>
      .cls-1 {
        fill: #fff;
      }
    </style>
  </defs>
  <g id="design">
    <g>
      <path class="cls-1" d="M18.06,13.84h1.07v5.67h-1.07c-1.33,0-2.42-1.08-2.42-2.43v-.82c0-1.34,1.09-2.43,2.42-2.43Z"/>
      <path class="cls-1" d="M24.52,0H5.37C2.4,0,0,2.42,0,5.39V23.9c0,2.97,2.4,5.38,5.37,5.38H24.52c2.97,0,5.38-2.41,5.38-5.38V5.39c0-2.97-2.41-5.39-5.38-5.39ZM10.77,21.87h-2.86V8.61h2.86v13.27Zm11.22-1.07c-.03,.86-2.86,1.07-2.86,1.07h-1.75c-2.45,0-4.44-1.99-4.44-4.45v-1.5c0-2.46,1.99-4.45,4.44-4.45h1.75V7.41h2.86v13.39Z"/>
    </g>
  </g>
</svg>