<?xml version="1.0" encoding="UTF-8"?>
<svg id="Layer_2" data-name="Layer 2" xmlns="http://www.w3.org/2000/svg" viewBox="0 0 26.24 30">
  <defs>
    <style>
      .cls-1 {
        fill: #fff;
      }
    </style>
  </defs>
  <g id="design">
    <g>
      <path class="cls-1" d="M0,0L2.39,27l10.72,3,10.74-3L26.24,0H0ZM4.96,6.41l-.08-.89H13.11v3.3h0s-4.64,0-4.64,0l.3,3.39h4.34v3.31H5.77l-.81-9.12Zm15.7,6.7l-.77,8.72-.05,.56-6.72,1.87h0s-.01,.01-.01,.01l-6.73-1.89-.46-5.2h3.3l.23,2.65,3.66,.99h.01s0,0,0,0l3.65-1,.38-4.29h-4.03v-3.31h7.62l-.08,.88Zm.59-6.7l-.15,1.67-.06,.75h-7.93v-3.31h8.22l-.08,.89Z"/>
      <polygon class="cls-1" points="13.11 20.83 13.11 24.27 13.12 24.27 13.12 20.82 13.11 20.83"/>
    </g>
  </g>
</svg>