<?xml version="1.0" encoding="UTF-8"?>
<svg id="Layer_2" data-name="Layer 2" xmlns="http://www.w3.org/2000/svg" viewBox="0 0 30.2 30">
  <defs>
    <style>
      .cls-1 {
        fill: #fff;
        fill-rule: evenodd;
      }
    </style>
  </defs>
  <g id="design">
    <g>
      <path class="cls-1" d="M29.5,22.27l-.14,.35c-2.3,4.5-6.39,7.26-12.21,7.38-2.72,.06-5.32-.64-7.01-1.41-3.66-1.65-6.73-4.7-8.41-7.96C-.67,15.95-1.11,9.44,3.9,4.58c.08,0-.61,1.05-.53,1.05l-.14,.45C-.37,17.42,10.75,27.13,21.56,26.01c2.6-.27,5.91-1.69,7.94-3.75"/>
      <path class="cls-1" d="M22.96,17.58c2.72,.02,5.56-1.26,7.24-3.04-1.47,3.75-5.73,6.15-11.45,5.39-4.78-.64-9.34-5.47-9.81-10.31-.34-3.52,.88-5.62,2.9-8.17-.7,1.33-.96,2.36-1.03,3.02-.77,7.62,6.07,13.08,12.15,13.12"/>
      <path class="cls-1" d="M29.93,8.12c-.42,.97-2.86,2.81-3.93,3.04-4.26,.91-6.98-1.11-8.41-3.42-.21-.34-.6-1.28-.68-1.52-.55-1.89-.3-4.74,1.35-6.22-.5,1.41-.57,3.04-.31,4.1,.16,.64,.64,1.76,1.13,2.47,.88,1.28,1.44,1.6,2.57,2.28,.51,.31,1.06,.55,1.29,.62,1.07,.32,3.34,1.15,6.99-1.34"/>
    </g>
  </g>
</svg>